<?xml version="1.0" encoding="utf-8"?>
<!-- Generator: Adobe Illustrator 26.0.1, SVG Export Plug-In . SVG Version: 6.00 Build 0)  -->
<svg version="1.1" id="Ebene_1" xmlns="http://www.w3.org/2000/svg" xmlns:xlink="http://www.w3.org/1999/xlink" 
width="300.000000pt" height="90.000000pt" 
 preserveAspectRatio="xMidYMid meet">
<style type="text/css">
	.st0{fill:#AC3229;}
</style>
<path class="st0" d="M306.2,32.7c0,11.2-0.3,12.2-16.1,12.2c-11.2,0-12.3,0-12.3,0V21.4c1.4,0,4.4,0.1,8.1,0.1
	C302.2,21.5,306.1,21.4,306.2,32.7 M320.3,30c-0.6-13.1-9.4-23.4-28.2-23.4l-26.8-0.1c-2.2,0-4,1.8-4,4v61.2c0,2.2,1.8,4,4,4h8.2
	c2.2,0,4-1.8,4-4V58.1l0.2,0h14.3C310.9,58.1,321.2,48.6,320.3,30"/>
<path class="st0" d="M143.5,44.1c-0.3-2-2.9-9.5-13.4-9.8c-6.8-0.2-29.9,1.1-32.6-1c-1.5-1.2-1.3-1.4-1.4-5.3
	c-0.1-3.4-0.6-6,2.2-6.9c1.5-0.4,34.5-0.1,40.9,0h0h0h0.1c0,0,0,0,0,0c2,0,3.7-1.3,3.7-3.3v-7.7c0-1.9-1.7-3.5-3.8-3.5l-28.9,0
	c-19,0-28.3,1.8-28.8,18.9c-0.5,20.2,3.3,23.7,28.2,23.4l12.8-0.2c4.1-0.2,7,0.6,7.1,4.5c0,3.3,0.3,5.5-0.9,6.6
	c-1.5,1.4-6.8,1.1-15.4,1.1c-4.9,0-24.8-0.1-27.7-0.1c-0.2,0-0.3,0-0.5,0c-2.1,0-3.7,2.6-3.7,4.7v6.3c0,2.1,1.7,3.6,3.7,3.6
	c0.2,0,0.4,0,0.6-0.1h29.6c9.6-0.1,20.2-0.4,25.1-3.9C146.2,67.3,144.4,49.9,143.5,44.1"/>
<path class="st0" d="M54.4,21.8v22.9H31.5c5-10.1,9.5-19.3,10-20.1c0.5-0.9,1.9-2.5,4-2.8C47.1,21.6,50.9,21.7,54.4,21.8 M70.6,71.2
	L70.6,71.2L70.6,71.2v-0.1v0v0v0v0v0v0v0v0v0v0v0v0v0v0V11.8v0v0v0v0v0v0v0v0v0v0v0v0v0v0v0v0c0-1.2-0.4-2.3-1.3-3.1
	c-0.8-0.9-1.9-1.3-3.1-1.3H42.4c-6.8-0.2-9.5,3.9-11,6.6C29.7,16.2,2.8,69,2,73.2c0.2,1.7,1.4,2.3,2.8,2.4C6,75.6,15,75.5,15,75.5
	c1.8-0.2,2-1,2.7-2.6c0.1-0.2,3.3-6.8,7.3-15.1h29.3v6.8l0.1,7.4c0.2,0.9,0.6,1.6,1.2,2.2c0.9,0.9,1.9,1.3,3.1,1.3h7.4
	c1.2,0,2.3-0.4,3.1-1.3C70.2,73.5,70.6,72.4,70.6,71.2"/>
<path class="st0" d="M386.4,17.1v-6.6c0-2.1-1.7-3.8-3.8-3.8h-55.4c-2.1,0-3.8,1.7-3.8,3.8v6.6c0,2.1,1.7,3.8,3.8,3.8h13.8v51
	c0,2.1,1.7,3.8,3.8,3.8h8.6c2.1,0,3.8-1.7,3.8-3.8v-51h25.4C384.7,20.9,386.4,19.2,386.4,17.1"/>
<path class="st0" d="M249.4,71.8V70V36.2v-5.8c0-13.3-10.8-24.1-24.1-24.1H216l0,0h-9.4c-4.2-0.1-6.8,1.3-8.6,3.1
	c-3.5-2-7.6-3.1-11.9-3.1h-18.7l0,0h-8.6h0h-0.3l0,0c-2,0.1-3.6,1.8-3.6,3.8v61.6c0,2.1,1.7,3.8,3.8,3.8h8.6c2.1,0,3.8-1.7,3.8-3.8
	V21.2h15.6c5.3,0,9.2,3.9,9.2,9.2v5.8V70v1.8c0,2.1,1.7,3.8,3.8,3.8h6.5c2.1,0,3.8-1.7,3.8-3.8V70V36.2v-5.8c0-3.2-0.6-6.3-1.8-9.1
	c1.8-0.1,3.9-0.1,5.9-0.1h4.3c0,0,0,0,0,0l0,0h7.4c5.3,0,9.2,3.9,9.2,9.2v5.8V70v1.8c0,2.1,1.7,3.8,3.8,3.8h6.5
	C247.7,75.6,249.4,73.9,249.4,71.8"/>

</svg>
