<svg width="147px" height="50px" viewBox="0 0 147 50" version="1.1" xmlns="http://www.w3.org/2000/svg" xmlns:xlink="http://www.w3.org/1999/xlink">
  <title>Icons/Logo</title>
  <g id="Symbols" stroke="none" stroke-width="1" fill="none" fill-rule="evenodd">
    <g id="Group" fill="#007AC9" transform="translate(0.000000, 0.000000)">
      <polyline id="Fill-1" points="32.1203274 49.6590974 31.5003191 49.6590974 36.9554186 24.0310039 44.7396071 24.0310039 47.3235162 39.1011019 50.5306798 24.032627 56.3607059 24.032627 50.9088524 49.6590974 43.2869698 49.6590974 40.7290296 33.7044325 37.3352143 49.6590974 32.1203274 49.6590974"></polyline>
      <path d="M61.9277965,36.2542574 C61.4895707,37.0511791 61.1535976,38.3739717 60.7786711,40.1528438 C60.3258377,42.2790505 60.0953634,43.7203264 60.0953634,44.6146316 C60.0953634,45.2752164 60.2252081,45.5900898 60.3436914,45.708573 C60.4540594,45.8351716 60.6731723,45.9244398 61.1454823,45.9244398 C61.9342887,45.8919786 62.2426698,45.7783645 62.7458179,44.9619661 C63.2213741,44.1293371 63.6790766,42.5565935 64.2309164,39.9467154 C64.5490359,38.4518785 64.7649027,37.2767842 64.7600335,36.4814855 C64.6642731,35.3648213 64.6204505,35.2495842 63.6531076,35.1635621 C62.7847713,35.1862849 62.387122,35.4622048 61.9277965,36.2542574 Z M60.4946358,49.9983166 C58.2596843,49.9983166 56.698302,49.5243835 55.6871366,48.5586637 C54.6792173,47.5929439 54.3351289,46.2230826 54.3351289,44.679554 C54.3351289,43.3437768 54.5818338,41.8473169 54.9324144,40.2193892 C55.8737883,35.5076505 57.6753832,31.0507319 64.3072002,31.0929314 C66.5924665,31.0913083 68.1668333,31.6009487 69.1666373,32.5747838 C70.1696874,33.5502419 70.4975453,34.9103649 70.494323,36.3776098 C70.494323,37.632234 70.2622018,39.0069645 69.9603129,40.4287638 C68.8874712,45.7864798 67.0031003,49.9983166 60.6001346,49.9983166 C60.5676735,49.9983166 60.527097,49.9983166 60.4946358,49.9983166 L60.4946358,49.9983166 Z" id="Fill-3"></path>
      <path d="M78.900119,31.4321506 L79.5201274,31.4321506 L79.2961453,32.4790233 C80.5280467,31.4386428 82.0098991,31.0783239 83.5079821,31.0929314 L84.1247443,31.0929314 L82.9918495,36.4198093 L82.561739,36.3922173 C82.3556105,36.3743637 82.1592205,36.3694945 81.9709457,36.3694945 C78.6420527,36.4198093 78.3661328,38.2506193 77.9603682,39.8817931 L75.8796072,49.6590974 L70.046335,49.6590974 L73.9221987,31.4321506 L78.900119,31.4321506" id="Fill-4"></path>
      <path d="M89.8492716,36.3938404 C89.4126688,37.3335913 89.1059108,38.7732441 88.7423457,40.4969322 C88.3414502,42.3731878 88.1093529,43.7690181 88.1109675,44.679554 C88.2002441,45.8919786 88.279774,45.9617702 88.9971659,46.0299386 C89.5993206,46.0153311 89.9563934,45.7783645 90.4384418,44.8629596 C90.8896521,43.9540468 91.2986628,42.4397332 91.7563653,40.2859346 C92.108569,38.6190536 92.4072117,37.2053696 92.4039918,36.2786032 C92.3179435,35.2512072 92.275744,35.1246087 91.5421216,35.0596863 C90.720854,35.0807861 90.3102202,35.4459742 89.8492716,36.3938404 Z M90.6169782,49.6590974 L89.9985929,49.6590974 L90.1819986,48.789138 C89.11078,49.6444899 87.8675172,50 86.4895405,50 C86.4668177,50 86.4408487,50 86.419749,50 C84.894074,50.0064319 83.7822789,49.4886762 83.1281864,48.6122247 C82.478963,47.7422653 82.285819,46.6272241 82.2825729,45.4651143 C82.2825729,43.7284417 82.7256679,41.8278402 83.0502796,40.3200189 C83.42196,38.5865924 83.8553166,36.3386564 84.8502514,34.46727 C85.8289557,32.6023758 87.5007059,31.0783239 90.1251915,31.0929314 C91.5064143,31.0653394 92.6539166,31.4386428 93.4443461,32.3475556 L95.2102337,24.032627 L101.045129,24.032627 L95.5965217,49.6590974 L90.6169782,49.6590974 L90.6169782,49.6590974 Z" id="Fill-5"></path>
      <path d="M121.554096,36.2542574 C121.11587,37.0511791 120.78152,38.3739717 120.404971,40.1528438 C119.942399,42.2839196 119.710302,43.7219494 119.72004,44.6146316 C119.710302,45.2752164 119.843392,45.5900898 119.965122,45.708573 C120.072244,45.8351716 120.294603,45.9244398 120.776651,45.9244398 C121.557342,45.8919786 121.868969,45.7783645 122.365625,44.9619661 C122.842804,44.1293371 123.30213,42.5565935 123.85397,39.9467154 C124.173712,38.4518785 124.386333,37.2767842 124.383124,36.4814855 C124.28895,35.3648213 124.240258,35.2495842 123.277784,35.1635621 C122.402956,35.1862849 122.015045,35.4622048 121.554096,36.2542574 Z M120.11282,49.9983166 C117.881115,49.9983166 116.322978,49.5243835 115.31019,48.5586637 C114.302271,47.5929439 113.954936,46.2263287 113.954936,44.679554 C113.954936,43.3453999 114.208133,41.8473169 114.553845,40.2193892 C115.501711,35.5076505 117.295191,31.0507319 123.928631,31.0913083 C126.222012,31.0913083 127.788264,31.6009487 128.79456,32.5747838 C129.794364,33.5502419 130.122222,34.9103649 130.120605,36.3792329 C130.120605,37.6371032 129.886878,39.0069645 129.586612,40.4287638 C128.508902,45.7864798 126.627777,49.9983166 120.218319,49.9983166 C120.185858,49.9983166 120.148527,49.9983166 120.11282,49.9983166 L120.11282,49.9983166 Z" id="Fill-6"></path>
      <path d="M137.783058,49.6590974 L140.440005,37.1826468 C140.534142,36.7265674 140.595818,36.3143105 140.595818,35.9848297 C140.509796,35.244715 140.542257,35.1392162 139.704759,35.0645555 C138.518303,35.0710477 138.169346,35.8598541 137.805781,37.3920214 L135.191033,49.6590974 L129.364253,49.6590974 L133.240117,31.4321506 L139.06852,31.4321506 L138.896476,32.2550413 C139.251926,31.9872366 139.621983,31.7746159 139.99204,31.6139332 C140.823046,31.2373836 141.714105,31.0929314 142.655479,31.0929314 C144.819016,31.0978006 146.735848,32.3150944 146.739094,34.5354384 C146.739094,34.827589 146.70501,35.1311009 146.640088,35.4524665 L143.617953,49.6590974 L137.783058,49.6590974" id="Fill-8"></path>
      <path d="M105.962996,1.51593662 C98.6008029,0.540478475 90.8231067,0 82.7646213,0 C37.0544252,0 0,16.8441009 0,37.6224957 C0,41.8310863 1.54677474,45.8773711 4.35466591,49.6590974 L19.4345023,49.6590974 C16.6022652,45.8887325 15.0489983,41.8424477 15.0489983,37.6224957 C15.0489983,17.6751069 49.4075233,1.50457521 91.7953187,1.50457521 C96.5914565,1.50457521 101.277226,1.72368811 105.833152,2.11971438 L105.962996,1.51593662" id="Fill-9"></path>
      <path d="M112.536383,32.0602742 C111.491133,31.3769666 110.134256,31.0961775 108.679996,31.0929043 C105.500425,31.0864391 101.270734,32.246926 100.369937,36.3337872 C100.288784,36.7054676 100.24983,37.0690327 100.24983,37.4082519 C100.262815,39.8558241 102.255931,40.9773575 103.95365,41.793756 C105.717914,42.6134005 107.151075,43.3129387 107.110499,44.2754124 C107.118614,44.3241041 107.115368,44.3727959 107.115368,44.4279799 C107.115368,45.181079 106.368761,45.7929721 105.451733,45.7929721 C104.547689,45.7929721 103.797836,45.181079 103.797836,44.4279799 C103.797836,44.4263568 103.797836,44.4263568 103.797836,44.4231107 C103.797836,44.4231107 103.770244,43.7560337 104.062395,43.1311562 L98.9481374,43.1311562 L98.8491309,43.5012135 C98.6056721,44.3809112 98.492058,45.1567331 98.492058,45.8432869 C98.4709582,47.4452456 99.1948423,48.6073555 100.363444,49.2143794 C101.525554,49.8262724 103.039868,49.9934474 104.805755,49.9983166 C104.812248,49.9983166 104.81874,49.9983166 104.825232,49.9983166 C108.983508,49.9983166 112.161457,47.6189129 112.857749,44.346827 C112.942148,43.958916 112.977855,43.5888586 112.977855,43.2350319 C112.96974,40.740391 110.994477,39.4744054 109.267543,38.5995769 C108.3002,38.1370052 107.433487,37.7004025 106.84594,37.3092454 C106.399599,37.0625405 106.013311,36.6372992 106.013311,36.132528 C106.013311,35.382675 106.751803,34.774028 107.672077,34.774028 C107.81166,34.774028 108.019411,34.8032431 108.261247,34.8665424 C108.858533,35.0548171 109.278905,35.5173888 109.306497,36.0692287 C109.306497,36.0692287 109.332466,36.6859909 109.06953,37.382283 L113.904621,37.382283 L114.008497,37.0138487 C114.175672,36.4068249 114.261796,35.8403774 114.261796,35.3177526 C114.271433,33.8618692 113.581633,32.7354666 112.536383,32.0602742" id="Fill-11"></path>
    </g>
  </g>
</svg>