<svg id="Layer_1" data-name="Layer 1" xmlns="http://www.w3.org/2000/svg" viewBox="0 0 336 336"><defs><style>.cls-1{fill:none;}.cls-2{fill:#ee3124;}.cls-3{fill:#fff;}</style></defs><path class="cls-1" d="M159.66,119.71c-19.17,0-26.13-.31-40.19-.77a30.32,30.32,0,0,1,0,13.6c9.27-1.09,22.26-2,28.29-2,.46,2.16.46,7.73.46,13.6v38.62c0,17.32-.31,29.22-1.24,42.82,3.4-.31,7.58-.77,12.68-.77s9.27.46,12.67.77c-.93-13.6-1.23-25.5-1.23-42.82V144.14c0-5.87,0-11.44.3-13.6a272.29,272.29,0,0,1,27.52,2,30.32,30.32,0,0,1,0-13.6C185.78,119.4,178.83,119.71,159.66,119.71Z" transform="translate(0.1 0)"/><path class="cls-1" d="M90.08,168.68v-.31c9.59-1.55,25.2-8.66,25.2-25.51s-12.68-24-31.22-24c-8.82,0-19,.77-27.83.77-5.1,0-9.27-.46-12.67-.77.92,13.6,1.23,25.5,1.23,42.81l0,21.11c0,17.32-.31,29.22-1.23,42.82,3.4-.31,10-.77,15.61-.77,7.73,0,14.53.77,22.72.77,18.4,0,36-8.81,36-30.92C117.91,176,99.51,169.18,90.08,168.68Z" transform="translate(0.1 0)"/><path class="cls-1" d="M293.66,119.66a46.34,46.34,0,0,1-7.88-.77c.77,14.21,1.24,28.28,1.24,42.5,0,28.75-1.71,55.49-26.44,55.49-20.09,0-30.91-6.18-30.91-43.9,0-17.93.15-34,2.16-54.09a116.75,116.75,0,0,1-12.67.77,116.78,116.78,0,0,1-12.68-.77c.31,5.1.62,15.45.62,31.84,0,11.13-.31,19.47-.31,36.17,0,29.1,20.57,40.71,47,40.71v0c30,0,45.6-14.84,45.6-50.7,0-26.74,1.08-48.85,2-58A44.61,44.61,0,0,1,293.66,119.66Z" transform="translate(0.1 0)"/><path class="cls-2" d="M168,0h-.1a168,168,0,1,0,.1,0Z" transform="translate(0.1 0)"/><path class="cls-3" d="M81.91,225.6c-8.19,0-15-.77-22.72-.77-5.61,0-12.21.46-15.61.77.92-13.6,1.23-25.5,1.23-42.82l0-21.11c0-17.31-.31-29.21-1.23-42.81,3.4.31,7.57.77,12.67.77,8.83,0,19-.77,27.83-.77,18.54,0,31.22,7.15,31.22,24s-15.61,24-25.2,25.51v.31c9.43.5,27.83,7.3,27.83,26C117.91,216.79,100.31,225.6,81.91,225.6Z" transform="translate(0.1 0)"/><path class="cls-3" d="M198.92,132.54a272.29,272.29,0,0,0-27.52-2c-.3,2.16-.3,7.73-.3,13.6v38.62c0,17.32.3,29.22,1.23,42.82-3.4-.31-7.57-.77-12.67-.77s-9.28.46-12.68.77c.93-13.6,1.24-25.5,1.24-42.82V144.14c0-5.87,0-11.44-.46-13.6-6,0-19,.91-28.29,2a30.32,30.32,0,0,0,0-13.6c14.06.46,21,.77,40.19.77s26.12-.31,39.26-.77A30.32,30.32,0,0,0,198.92,132.54Z" transform="translate(0.1 0)"/><path class="cls-2" d="M253.79,227.59v0c-26.43,0-47-11.61-47-40.71,0-16.7.31-25,.31-36.17,0-16.39-.31-26.74-.62-31.84a116.78,116.78,0,0,0,12.68.77,116.75,116.75,0,0,0,12.67-.77c-2,20.09-2.16,36.16-2.16,54.09,0,37.72,10.82,43.9,30.91,43.9,24.73,0,26.44-26.74,26.44-55.49,0-14.22-.47-28.29-1.24-42.5a46.34,46.34,0,0,0,7.88.77,44.61,44.61,0,0,0,7.73-.77c-.92,9.15-2,31.26-2,58C299.39,212.75,283.79,227.59,253.79,227.59Z" transform="translate(0.1 0)"/><path class="cls-3" d="M293.66,119.66a46.34,46.34,0,0,1-7.88-.77c.77,14.21,1.24,28.28,1.24,42.5,0,28.75-1.71,55.49-26.44,55.49-20.09,0-30.91-6.18-30.91-43.9,0-17.93.15-34,2.16-54.09a116.75,116.75,0,0,1-12.67.77,116.78,116.78,0,0,1-12.68-.77c.31,5.1.62,15.45.62,31.84,0,11.13-.31,19.47-.31,36.17,0,29.1,20.57,40.71,47,40.71v0c30,0,45.6-14.84,45.6-50.7,0-26.74,1.08-48.85,2-58A44.61,44.61,0,0,1,293.66,119.66Z" transform="translate(0.1 0)"/><path class="cls-1" d="M90.08,168.68v-.31c9.59-1.55,25.2-8.66,25.2-25.51s-12.68-24-31.22-24c-8.82,0-19,.77-27.83.77-5.1,0-9.27-.46-12.67-.77.92,13.6,1.23,25.5,1.23,42.81l0,21.11c0,17.32-.31,29.22-1.23,42.82,3.4-.31,10-.77,15.61-.77,7.73,0,14.53.77,22.72.77,18.4,0,36-8.81,36-30.92C117.91,176,99.51,169.18,90.08,168.68ZM68.27,128.22a39.15,39.15,0,0,1,7.57-.47c12.25,0,16.58,8.25,16.58,18.09,0,13.14-8.81,19.63-17.62,19.63h-7c0-5.25-.15-10.2-.15-15.77C67.65,144.45,68,135.79,68.27,128.22Zm8.23,88.54c-3.4,0-5.72-.16-8.5-.31,0-5.41-.31-17.31-.31-27,0-6.34.15-10.66.15-15,1.86,0,3.87-.16,6.65-.16,12.37,0,19,7.1,19,21.47C93.5,209.21,85.62,216.76,76.5,216.76Z" transform="translate(0.1 0)"/><path class="cls-1" d="M159.66,119.71c-19.17,0-26.13-.31-40.19-.77a30.32,30.32,0,0,1,0,13.6c9.27-1.09,22.26-2,28.29-2,.46,2.16.46,7.73.46,13.6v38.62c0,17.32-.31,29.22-1.24,42.82,3.4-.31,7.58-.77,12.68-.77s9.27.46,12.67.77c-.93-13.6-1.23-25.5-1.23-42.82V144.14c0-5.87,0-11.44.3-13.6a272.29,272.29,0,0,1,27.52,2,30.32,30.32,0,0,1,0-13.6C185.78,119.4,178.83,119.71,159.66,119.71Z" transform="translate(0.1 0)"/><path class="cls-2" d="M74.49,174.29c-2.78,0-4.79.16-6.65.16,0,4.34-.15,8.66-.15,15,0,9.69.31,21.59.31,27,2.78.15,5.1.31,8.5.31,9.12,0,17-7.55,17-21C93.5,181.39,86.86,174.28,74.49,174.29Z" transform="translate(0.1 0)"/><path class="cls-2" d="M74.8,165.47c8.81,0,17.62-6.49,17.62-19.63,0-9.84-4.33-18.09-16.58-18.09a39.15,39.15,0,0,0-7.57.47c-.31,7.57-.62,16.23-.62,21.48,0,5.57.15,10.52.15,15.77Z" transform="translate(0.1 0)"/></svg>