<svg id="Layer_1" data-name="Layer 1" xmlns="http://www.w3.org/2000/svg" viewBox="0 0 302 141"><defs><style>.cls-1{fill:#1a1818;}.cls-2{fill:#fff;}.cls-3{fill:#ed193f;}</style></defs><path class="cls-1" d="M151,1C68.16,1,1,32.11,1,70.5S68.16,140,151,140s150-31.11,150-69.5S233.84,1,151,1Z"/><path class="cls-2" d="M91.91,41.55H45.4a2.62,2.62,0,0,0-1.68,1.35V99.19a2.49,2.49,0,0,0,2.22,1.42h13.5a2.17,2.17,0,0,0,2.16-1.35,103.72,103.72,0,0,0,0-10.87,2.09,2.09,0,0,1,2.1-2H96.5c12.55,0,16.26-10.26,16.26-19.17V62.07C112.76,50.32,108.71,41.55,91.91,41.55ZM93.8,66.72c0,2.3-.68,3.58-2.23,4.26l-.81.13H61.4V56.47H89.61a6,6,0,0,1,3.31,1.68h0a6,6,0,0,1,.54,1h0A66.69,66.69,0,0,1,93.8,66.72Z"/><path class="cls-2" d="M195,41.75H179.72a4.94,4.94,0,0,0-3.72,2.5S155,83.87,154.88,83.8s-22.34-39.69-22.34-39.69a4.69,4.69,0,0,0-3.71-2.43H113.51c-1.29,0-1.83,1.08-1.08,2.43l29.22,54a4.72,4.72,0,0,0,3.71,2.43h18.56a4.31,4.31,0,0,0,3.24-2.63l29-54C196.86,42.76,196.39,41.75,195,41.75Z"/><path class="cls-2" d="M176.54,100.61H192a4.84,4.84,0,0,0,3.71-2.5l20.66-38.74s.32-.88.47-.81a1.69,1.69,0,0,1,.61,0l21.8,39.55a4.94,4.94,0,0,0,3.71,2.43h15.32c1.35,0,1.82-1.15,1.08-2.43l-29.23-54a4.74,4.74,0,0,0-3.71-2.43H208.13a5,5,0,0,0-3.71,2.5l-29,54C174.72,99.53,175.19,100.61,176.54,100.61Z"/><path class="cls-3" d="M224.06,83.33l-6.21-12.69h0a.79.79,0,0,0-.74-.47.93.93,0,0,0-.81.54h0s-6.21,12.55-6.21,12.75a1.48,1.48,0,0,0,1.48,1.42h11.21A1.49,1.49,0,0,0,224.06,83.33Z"/></svg>