                <svg xmlns="http://www.w3.org/2000/svg" class="logo__image" viewBox="0 0 300 156" width="100%" height="100%">
  <path fill="#0069b4" d="M148.523 0h119.141v119.141H148.523zM138.767 19.305l-23.737.031-.008-6.515 23.736-.031.009 6.515z"/>
  <path fill="#fff" d="M148.523 59.587h84.563v9.754h-84.563z"/>
  <path fill="#dd0b2f" d="M200.743 39.615h66.918v9.717h-66.918z"/>
  <path fill="#0069b4" d="M114.884 25.421h23.882v6.517h-23.882zM114.884 51.141h23.882v6.517h-23.882z"/>
  <path d="M108.866.019h29.901v6.526h-29.901v31.503h29.901v7.103h-29.901v18.521h17.4v21.502H115.09V78.64l4.605-.003v-8.303c-4.162.007-10.906 3.931-10.829 11.54.068 6.876 5.853 11.678 11.666 11.678 6.03 0 11.701-5.368 11.701-11.678V70.21l6.529-6.538.005 18.183c0 5.8-3.74 15.917-15.147 18.009h15.147l-.005 6.631-23.513.01.051-7.124s-3.549-1.042-6.438-3.472l.004 16.738h29.901v6.494h-29.901l-6.538-6.494V82.054c0-4.573 1.28-8.353 4.202-11.902H88.424l6.531-6.475 7.373-.005V6.545l6.538-6.526z" fill="#0069b4" fill-rule="nonzero"/>
  <path class="logo-svg__thermal-systems" d="M7.466 141.679v13.508H4.274v-13.508H0v-2.848h11.741v2.848H7.466zM24.788 155.187v-6.847h-5.536v6.847h-3.195v-16.356h3.195v6.686h5.536v-6.686h3.194v16.356h-3.194zM33.517 155.187v-16.356h10.776v2.848H36.71v3.838h6.456v2.847H36.71v3.973h7.583v2.85H33.517zM57.822 155.187l-3.192-6.525h-2.299v6.525h-3.192v-16.356h6.41c3.33 0 5.307 2.274 5.307 5.007 0 2.299-1.404 3.721-2.987 4.297l3.652 7.052h-3.699zm-2.481-13.508h-3.01v4.32h3.01c1.402 0 2.321-.897 2.321-2.161s-.919-2.159-2.321-2.159M77.51 155.187v-9.533l-3.125 6.203h-2.159l-3.148-6.203v9.533h-3.192v-16.356h3.148l4.272 8.845 4.251-8.845h3.145v16.356H77.51zM95.543 155.187l-.965-2.894h-5.811l-.988 2.894h-3.333l5.951-16.356h2.505l5.971 16.356h-3.33zm-3.812-11.531l-2.068 5.948h4.066l-1.998-5.948zM102.619 155.187v-16.356h3.194v13.506h7.42v2.85h-10.614zM129.773 155.324c-2.481 0-4.366-.529-5.974-2.159l2.068-2.066c1.035 1.033 2.437 1.378 3.952 1.378 1.884 0 2.894-.713 2.894-2.021 0-.574-.161-1.059-.506-1.381-.322-.298-.688-.457-1.446-.573l-1.977-.276c-1.401-.207-2.434-.643-3.169-1.354-.781-.781-1.173-1.84-1.173-3.216 0-2.919 2.162-4.962 5.699-4.962 2.25 0 3.882.55 5.282 1.905l-2.02 1.998c-1.035-.986-2.276-1.123-3.355-1.123-1.7 0-2.526.939-2.526 2.066 0 .415.138.851.481 1.172.322.299.851.551 1.518.644l1.928.275c1.495.205 2.435.62 3.125 1.262.872.827 1.264 2.021 1.264 3.469 0 3.172-2.642 4.962-6.065 4.962M146.818 148.479v6.706h-3.169v-6.706l-4.917-9.649h3.469l3.055 6.592 3.01-6.592h3.468l-4.916 9.649zM159.935 155.324c-2.481 0-4.365-.529-5.974-2.159l2.069-2.066c1.035 1.033 2.434 1.378 3.952 1.378 1.884 0 2.894-.713 2.894-2.021 0-.574-.161-1.059-.506-1.381-.322-.298-.688-.457-1.446-.573l-1.977-.276c-1.402-.207-2.435-.643-3.169-1.354-.781-.781-1.173-1.84-1.173-3.216 0-2.919 2.159-4.962 5.699-4.962 2.25 0 3.882.55 5.284 1.905l-2.022 1.998c-1.035-.986-2.276-1.123-3.356-1.123-1.699 0-2.527.939-2.527 2.066 0 .415.14.851.482 1.172.322.299.852.551 1.518.644l1.929.275c1.495.205 2.434.62 3.124 1.262.873.827 1.264 2.021 1.264 3.469 0 3.172-2.642 4.962-6.065 4.962M176.981 141.679v13.508h-3.192v-13.508h-4.274v-2.848h11.738v2.848h-4.272zM185.573 155.187v-16.356h10.775v2.848h-7.583v3.838h6.457v2.847h-6.457v3.973h7.583v2.85h-10.775zM212.818 155.187v-9.533l-3.124 6.203h-2.16l-3.145-6.203v9.533h-3.195v-16.356h3.148l4.272 8.845 4.251-8.845h3.145v16.356h-3.192zM226.051 155.324c-2.481 0-4.366-.529-5.974-2.159l2.068-2.066c1.033 1.033 2.434 1.378 3.952 1.378 1.882 0 2.894-.713 2.894-2.021 0-.574-.161-1.059-.506-1.381-.322-.298-.688-.457-1.446-.573l-1.977-.276c-1.402-.207-2.434-.643-3.169-1.354-.781-.781-1.173-1.84-1.173-3.216 0-2.919 2.159-4.962 5.699-4.962 2.25 0 3.882.55 5.284 1.905l-2.024 1.998c-1.033-.986-2.274-1.123-3.353-1.123-1.7 0-2.528.939-2.528 2.066 0 .415.14.851.483 1.172.322.299.851.551 1.518.644l1.928.275c1.493.205 2.435.62 3.125 1.262.872.827 1.264 2.021 1.264 3.469 0 3.172-2.642 4.962-6.065 4.962" fill="#dd0b2f" fill-rule="nonzero"/>
  <path fill="#0069b4" d="M277.396 59.561H300v9.794h-22.604z"/>
</svg>