<?xml version="1.0" standalone="no"?>
<!DOCTYPE svg PUBLIC "-//W3C//DTD SVG 20010904//EN"
 "http://www.w3.org/TR/2001/REC-SVG-20010904/DTD/svg10.dtd">
<svg version="1.0" xmlns="http://www.w3.org/2000/svg"
 width="200.000000pt" height="200.000000pt" viewBox="0 0 200.000000 200.000000"
 preserveAspectRatio="xMidYMid meet">

<g transform="translate(0.000000,200.000000) scale(0.100000,-0.100000)"
fill="#000000" stroke="none">
<path d="M1152 1104 c-28 -17 -40 -29 -35 -38 5 -7 39 -61 77 -120 92 -144 97
-143 182 19 35 66 63 123 64 127 0 4 -9 12 -20 18 -18 10 -24 3 -62 -75 -23
-47 -45 -85 -48 -85 -3 0 -14 15 -25 33 -10 17 -35 58 -55 89 l-36 57 -42 -25z"/>
<path d="M292 1103 c-44 -22 -62 -60 -62 -135 -1 -72 -14 -95 -58 -104 -18 -4
-29 -10 -26 -15 8 -14 81 -11 118 5 50 21 66 51 66 121 0 78 16 109 58 113 41
4 41 18 1 26 -46 9 -60 7 -97 -11z"/>
<path d="M491 1106 c-8 -9 -11 -55 -9 -137 l3 -124 45 0 45 0 3 138 3 137 -39
0 c-22 0 -45 -6 -51 -14z"/>
<path d="M745 1102 c-18 -16 -20 -27 -17 -139 2 -68 7 -123 11 -123 4 0 15 6
25 13 15 11 17 25 14 85 -2 43 1 72 7 72 5 0 51 -41 101 -91 l92 -92 28 22 27
22 -2 122 c-1 67 -4 123 -6 125 -2 2 -12 -1 -24 -7 -17 -10 -21 -23 -23 -89
l-3 -77 -91 88 c-50 48 -97 87 -105 87 -8 -1 -23 -8 -34 -18z"/>
<path d="M1597 1106 c-127 -46 -143 -187 -28 -246 115 -58 291 15 291 120 0
40 -39 92 -90 118 -51 25 -115 28 -173 8z m90 -26 c46 -28 66 -72 61 -132 -6
-58 -34 -94 -66 -84 -11 4 -34 21 -51 38 -49 50 -52 136 -6 181 21 21 23 21
62 -3z"/>
</g>
</svg>
