<svg version="1.1" id="Layer_1" xmlns="http://www.w3.org/2000/svg" xmlns:xlink="http://www.w3.org/1999/xlink" x="0px" y="0px"
	 width="100%" viewBox="0 0 475 483" enable-background="new 0 0 475 483" xml:space="preserve">
<path fill="#010101" opacity="1.000000" stroke="none" 
	d="
M1.000000,186.000000 
	C1.000000,124.000000 1.000000,62.500000 1.000000,1.000000 
	C159.333328,1.000000 317.666656,1.000000 476.000000,1.000000 
	C476.000000,162.000000 476.000000,323.000000 476.000000,484.000000 
	C317.666656,484.000000 159.333328,484.000000 1.000000,484.000000 
	C1.000000,384.833344 1.000000,285.666656 1.000000,186.000000 
M459.289246,197.116791 
	C458.852478,194.830185 458.456726,192.534836 457.973022,190.258209 
	C437.879852,95.690735 360.829437,23.106804 267.224243,11.731666 
	C198.079132,3.328980 137.072784,22.756056 87.079277,70.936104 
	C24.813890,130.942902 2.895563,205.158524 20.379595,289.525543 
	C43.306267,400.155304 144.692780,477.574402 256.538635,468.222107 
	C296.847961,464.851501 334.013519,452.342834 366.247711,428.147736 
	C443.269958,370.334595 473.122345,292.806000 459.289246,197.116791 
z"/>
<path fill="#FAFAFA" opacity="1.000000" stroke="none" 
	d="
M459.373962,197.539062 
	C473.122345,292.806000 443.269958,370.334595 366.247711,428.147736 
	C334.013519,452.342834 296.847961,464.851501 256.538635,468.222107 
	C144.692780,477.574402 43.306267,400.155304 20.379595,289.525543 
	C2.895563,205.158524 24.813890,130.942902 87.079277,70.936104 
	C137.072784,22.756056 198.079132,3.328980 267.224243,11.731666 
	C360.829437,23.106804 437.879852,95.690735 457.973022,190.258209 
	C458.456726,192.534836 458.852478,194.830185 459.373962,197.539062 
M102.024940,401.487488 
	C169.554321,457.730347 244.804016,471.082092 324.653961,434.372772 
	C402.355469,398.651093 442.543457,334.062439 447.551575,249.152603 
	C451.129669,188.488159 430.799042,135.187775 389.317780,90.444664 
	C308.827454,3.625072 171.018341,2.804849 89.899689,89.068100 
	C42.408989,139.570694 23.299984,199.930267 31.966564,268.619446 
	C38.603439,321.221680 62.293495,365.296112 102.024940,401.487488 
z"/>
<path fill="#010101" opacity="1.000000" stroke="none" 
	d="
M101.761185,401.248352 
	C62.293495,365.296112 38.603439,321.221680 31.966564,268.619446 
	C23.299984,199.930267 42.408989,139.570694 89.899689,89.068100 
	C171.018341,2.804849 308.827454,3.625072 389.317780,90.444664 
	C430.799042,135.187775 451.129669,188.488159 447.551575,249.152603 
	C442.543457,334.062439 402.355469,398.651093 324.653961,434.372772 
	C244.804016,471.082092 169.554321,457.730347 101.761185,401.248352 
M160.622528,154.873199 
	C186.774048,179.095428 212.954056,203.287094 239.028305,227.592224 
	C241.362823,229.768372 242.729187,229.549561 244.710999,227.357986 
	C247.835754,223.902496 251.074234,220.524765 254.501862,217.372101 
	C294.356506,180.714523 334.257019,144.106796 374.139648,107.479607 
	C376.270782,105.522446 378.350830,103.509644 381.174042,100.843369 
	C361.473022,100.843369 342.849335,100.731804 324.230347,100.977409 
	C321.762329,101.009979 318.719635,102.245338 316.955872,103.963387 
	C299.529633,120.937668 282.262634,138.076920 265.069458,155.288223 
	C257.431702,162.934052 250.065125,170.850800 242.439713,178.785843 
	C240.417419,176.905380 239.193405,175.824951 238.033218,174.679840 
	C214.077591,151.035873 190.167831,127.345032 166.095261,103.820786 
	C164.434662,102.198021 161.588303,101.027298 159.262833,100.973785 
	C147.105057,100.694031 134.937424,100.843170 122.773209,100.843170 
	C115.806778,100.843170 108.840340,100.843170 101.687851,100.843170 
	C101.687851,185.816956 101.687851,270.376312 101.687851,355.088379 
	C115.900352,355.088379 129.829529,355.088379 144.327545,355.088379 
	C144.327545,283.626373 144.327545,212.378326 144.327545,139.996460 
	C150.127228,145.290039 155.115143,149.842712 160.622528,154.873199 
M361.692719,129.191086 
	C321.768433,166.218353 281.844147,203.245636 241.805984,240.378510 
	C223.859512,223.060059 206.233429,206.050781 187.879013,188.338669 
	C187.879013,201.803009 187.830307,213.962006 187.949158,226.119354 
	C187.962006,227.435822 188.586609,229.136612 189.530975,229.995758 
	C206.764755,245.674515 224.090973,261.251678 241.469910,276.915649 
	C272.922729,248.693512 304.159180,220.665512 336.296539,191.829132 
	C336.296539,248.424850 336.296539,303.534943 336.296539,358.761414 
	C350.650177,358.761414 364.699829,358.761414 379.191833,358.761414 
	C378.115723,277.600616 380.534851,196.727280 377.570496,114.466553 
	C371.671112,119.939117 366.942657,124.325470 361.692719,129.191086 
z"/>
<path fill="#FDFDFD" opacity="1.000000" stroke="none" 
	d="
M160.362793,154.634277 
	C155.115143,149.842712 150.127228,145.290039 144.327545,139.996460 
	C144.327545,212.378326 144.327545,283.626373 144.327545,355.088379 
	C129.829529,355.088379 115.900352,355.088379 101.687851,355.088379 
	C101.687851,270.376312 101.687851,185.816956 101.687851,100.843170 
	C108.840340,100.843170 115.806778,100.843170 122.773209,100.843170 
	C134.937424,100.843170 147.105057,100.694031 159.262833,100.973785 
	C161.588303,101.027298 164.434662,102.198021 166.095261,103.820786 
	C190.167831,127.345032 214.077591,151.035873 238.033218,174.679840 
	C239.193405,175.824951 240.417419,176.905380 242.439713,178.785843 
	C250.065125,170.850800 257.431702,162.934052 265.069458,155.288223 
	C282.262634,138.076920 299.529633,120.937668 316.955872,103.963387 
	C318.719635,102.245338 321.762329,101.009979 324.230347,100.977409 
	C342.849335,100.731804 361.473022,100.843369 381.174042,100.843369 
	C378.350830,103.509644 376.270782,105.522446 374.139648,107.479607 
	C334.257019,144.106796 294.356506,180.714523 254.501862,217.372101 
	C251.074234,220.524765 247.835754,223.902496 244.710999,227.357986 
	C242.729187,229.549561 241.362823,229.768372 239.028305,227.592224 
	C212.954056,203.287094 186.774048,179.095428 160.362793,154.634277 
z"/>
<path fill="#FDFDFD" opacity="1.000000" stroke="none" 
	d="
M361.953461,128.951447 
	C366.942657,124.325470 371.671112,119.939117 377.570496,114.466553 
	C380.534851,196.727280 378.115723,277.600616 379.191833,358.761414 
	C364.699829,358.761414 350.650177,358.761414 336.296539,358.761414 
	C336.296539,303.534943 336.296539,248.424850 336.296539,191.829132 
	C304.159180,220.665512 272.922729,248.693512 241.469910,276.915649 
	C224.090973,261.251678 206.764755,245.674515 189.530975,229.995758 
	C188.586609,229.136612 187.962006,227.435822 187.949158,226.119354 
	C187.830307,213.962006 187.879013,201.803009 187.879013,188.338669 
	C206.233429,206.050781 223.859512,223.060059 241.805984,240.378510 
	C281.844147,203.245636 321.768433,166.218353 361.953461,128.951447 
z"/>
</svg>